<svg xmlns="http://www.w3.org/2000/svg" width="512" height="512" viewBox="0 0 512 512" version="1.1">
<path d="M 178.500 11.496 C 154.581 15.714, 132.216 25.797, 113.794 40.668 C 107.281 45.925, 104.469 47.430, 95.634 50.386 C 46.168 66.939, 10.307 108.714, 1.602 159.926 C -0.438 171.931, -0.465 193.575, 1.545 206 C 3.302 216.860, 9.347 235.771, 14.054 245.133 C 27.589 272.052, 49.030 293.660, 75.786 307.346 C 94.993 317.171, 111.950 321.629, 134 322.651 L 147.500 323.277 158 333.448 C 169.177 344.275, 185.430 355.781, 196.217 360.503 C 202.248 363.143, 202.649 363.548, 206.204 370.573 L 209.907 377.891 205.204 378.505 C 185.045 381.133, 167.672 392.228, 157.546 408.939 C 151.376 419.121, 150.034 425.123, 146.911 456.500 C 143.176 494.019, 143.176 495.330, 146.923 499.077 L 149.846 502 256 502 L 362.154 502 365.077 499.077 C 367.581 496.573, 367.998 495.390, 367.988 490.827 C 367.966 480.871, 362.139 427.526, 360.470 422 C 357.636 412.616, 352.854 404.858, 345 396.905 C 334.260 386.029, 324.808 381.485, 306.778 378.530 L 303.056 377.920 306.753 370.449 C 310.302 363.277, 310.705 362.859, 316.843 359.986 C 328.373 354.591, 342.907 344.226, 353.894 333.565 L 364.500 323.272 377.500 322.685 C 396.730 321.816, 415.887 317.687, 420.493 313.419 C 424.989 309.252, 424.994 302.904, 420.505 298.414 C 417.379 295.288, 414.052 295.322, 401.477 298.605 C 393.086 300.797, 388.569 301.296, 373.067 301.743 C 352.152 302.347, 355.494 300.957, 344.283 313.712 C 338.076 320.773, 325.231 331.799, 320.173 334.406 L 317.500 335.784 317.486 325.642 C 317.464 308.995, 311.718 295.041, 299.944 283.042 C 288.487 271.367, 275.730 265.884, 258.500 265.227 C 245.591 264.735, 238.485 266.223, 227.587 271.702 C 217.384 276.830, 205.532 288.905, 200.602 299.191 C 196.022 308.750, 193.730 319.272, 194.183 328.654 L 194.529 335.808 191.841 334.418 C 186.758 331.790, 173.925 320.774, 167.717 313.712 C 156.287 300.708, 158.981 302.001, 143.295 301.996 C 113.721 301.987, 90.053 294.633, 69.036 278.921 C 53.156 267.048, 41.844 253.437, 32.950 235.500 C 8.019 185.219, 21.581 125.065, 65.788 89.850 C 78.620 79.628, 90.931 73.329, 107.425 68.550 C 115.025 66.347, 116.884 65.299, 124.133 59.125 C 158.393 29.951, 205.081 22.473, 246.795 39.480 C 251.544 41.416, 256.587 43, 258 43 C 259.413 43, 264.379 41.452, 269.035 39.561 C 312.422 21.933, 360.857 30.513, 395.211 61.910 C 399.730 66.040, 402.581 67.661, 409.347 69.948 C 462.395 87.880, 495.764 138.221, 490.951 193.060 C 489.563 208.884, 485.977 221.378, 478.341 237 C 471.763 250.457, 471.746 250.513, 473.121 254.500 C 474.986 259.908, 480.311 262.713, 485.478 261.007 C 489.991 259.518, 492.143 256.685, 498.019 244.500 C 503.996 232.103, 507.472 221.641, 509.580 209.703 C 510.474 204.641, 511.609 199.719, 512.102 198.764 C 513.207 196.627, 513.309 165.691, 512.210 166.370 C 511.775 166.639, 510.843 163.196, 510.139 158.720 C 502.635 111.033, 466.060 67.740, 419.500 51.434 C 413.710 49.406, 410.102 47.371, 406.438 44.066 C 390.545 29.731, 366.526 17.694, 343.401 12.475 C 333.840 10.318, 306.449 9.421, 295.892 10.920 C 285.620 12.378, 273.610 15.452, 265.155 18.786 L 258.810 21.289 248.155 17.713 C 242.295 15.746, 234.125 13.391, 230 12.481 C 219.577 10.179, 189.257 9.600, 178.500 11.496 M 115.500 101.347 C 105.049 104.805, 95.980 112.179, 91.615 120.768 L 89.316 125.293 80.908 125.514 C 75.306 125.662, 70.758 126.411, 67.281 127.760 C 40.626 138.098, 32.251 171.532, 49.989 196.790 C 59.837 210.813, 68.845 215.808, 100.554 224.827 C 112.107 228.112, 125.754 232.420, 130.880 234.400 C 141.607 238.543, 143.322 238.711, 147.699 236.042 C 150.039 234.615, 151.186 232.938, 151.971 229.796 C 152.561 227.433, 156.414 216.050, 160.534 204.500 C 171.184 174.644, 173.192 166.283, 173.261 151.500 C 173.306 141.980, 172.893 138.209, 171.264 133.252 C 167.113 120.620, 157.149 109.310, 145.259 103.733 C 139.384 100.977, 137.257 100.527, 129 100.293 C 123.084 100.125, 117.991 100.523, 115.500 101.347 M 212.308 102.010 C 208.132 103.692, 206.857 107.492, 203.842 127.240 L 200.901 146.500 196.481 150.871 C 188.019 159.240, 187.545 161.148, 187.184 188.268 C 186.791 217.868, 187.358 220.518, 195.903 229.063 C 204.680 237.840, 215.072 240.190, 226.387 235.956 C 237.649 231.743, 244.075 222.421, 244.798 209.250 L 245.251 201 258 201 L 270.749 201 271.202 209.250 C 271.730 218.868, 273.933 223.997, 280.117 229.998 C 284.764 234.507, 293.161 238, 299.356 238 C 310.228 238, 321.238 231.118, 326.135 221.261 C 328.439 216.623, 328.500 215.830, 328.500 190.500 C 328.500 165.453, 328.416 164.330, 326.219 159.871 C 324.965 157.325, 321.950 153.275, 319.519 150.871 L 315.099 146.500 312.158 127.240 C 309.089 107.142, 307.883 103.666, 303.383 101.955 C 300.202 100.746, 215.319 100.797, 212.308 102.010 M 403.500 103.958 C 402.400 104.415, 389.930 115.653, 375.789 128.929 C 354.944 148.501, 349.966 153.678, 349.488 156.285 C 349.164 158.053, 349.034 175.850, 349.200 195.833 L 349.500 232.166 352.766 235.083 L 356.032 238 406.565 238 C 460.560 238, 461.361 237.931, 463.970 233.055 C 464.626 231.831, 465 217.034, 465 192.342 L 465 153.553 459.184 148.027 C 437.208 127.143, 413.488 105.308, 411.665 104.285 C 409.168 102.884, 406.354 102.772, 403.500 103.958 M 120.871 121.542 C 113.192 123.944, 108.837 129.902, 106.558 141.124 C 105.140 148.107, 99.330 150.646, 90.995 147.926 C 83.882 145.604, 78.491 145.594, 73.429 147.893 C 65.269 151.599, 59.942 161.980, 61.428 171.278 C 63.052 181.434, 70.764 191.602, 80.435 196.337 C 85.590 198.861, 129.277 212.088, 133.392 212.370 C 134.932 212.476, 136.197 210.079, 140.187 199.500 C 149.250 175.469, 152.224 163.874, 152.370 152 C 152.478 143.251, 152.149 140.741, 150.394 136.949 C 144.569 124.359, 132.313 117.964, 120.871 121.542 M 225.568 123.236 C 224.945 125.306, 223 138.720, 223 140.943 C 223 142.980, 223.341 143, 258 143 L 293 143 292.924 140.250 C 292.882 138.738, 292.305 134.125, 291.642 130 L 290.436 122.500 258.192 122.236 C 232.892 122.029, 225.866 122.244, 225.568 123.236 M 396.844 137.655 C 391.155 142.991, 386.313 147.501, 386.083 147.678 C 385.854 147.855, 395.261 148, 406.988 148 L 428.310 148 426.405 145.887 C 425.357 144.725, 420.605 140.214, 415.844 135.864 L 407.187 127.955 396.844 137.655 M 210.455 166.455 C 208.439 168.470, 208 169.900, 208 174.455 L 208 180 216 180 L 224 180 224 172 L 224 164 218.455 164 C 213.900 164, 212.470 164.439, 210.455 166.455 M 245 172 L 245 180 258 180 L 271 180 271 172 L 271 164 258 164 L 245 164 245 172 M 292 172 L 292 180 300 180 L 308 180 308 174.455 C 308 166.693, 305.307 164, 297.545 164 L 292 164 292 172 M 0.407 183 C 0.407 192.075, 0.559 195.787, 0.744 191.250 C 0.929 186.713, 0.929 179.287, 0.744 174.750 C 0.559 170.213, 0.407 173.925, 0.407 183 M 370 193 L 370 217 407.500 217 L 445 217 445 193 L 445 169 407.500 169 L 370 169 370 193 M 208 206.545 C 208 213.372, 210.874 217, 216.280 217 C 221.521 217, 224 213.688, 224 206.686 L 224 201 216 201 L 208 201 208 206.545 M 292 206.826 C 292 213.753, 294.509 217, 299.860 217 C 305.116 217, 308 213.296, 308 206.545 L 308 201 300 201 L 292 201 292 206.826 M 448.500 275.347 C 440.058 279.137, 441.258 292.121, 450.262 294.406 C 460.158 296.917, 467.097 285.528, 460.250 278.013 C 457.010 274.457, 452.674 273.473, 448.500 275.347 M 249.357 285.992 C 234.068 288.262, 220.802 299.518, 216.642 313.750 L 215.108 319 217.593 319 C 224.604 319, 239.998 316.597, 246.002 314.566 C 249.743 313.300, 255.456 310.405, 258.696 308.132 C 266.073 302.957, 268.842 302.888, 278.275 307.639 C 282.249 309.641, 287.822 312.078, 290.660 313.055 L 295.821 314.831 294.400 310.665 C 288.853 294.405, 268.347 283.173, 249.357 285.992 M 261 330.609 C 251.395 335.481, 240.253 338.181, 227.344 338.766 L 216.188 339.271 217.658 344.385 C 221.632 358.220, 230.512 372.572, 241.397 382.754 C 251.971 392.646, 258.291 393.304, 268.754 385.602 C 280.792 376.740, 293.057 356, 295.576 340.247 L 296.195 336.382 289.847 334.617 C 286.356 333.647, 280.500 331.536, 276.832 329.926 C 273.165 328.317, 269.565 327.070, 268.832 327.156 C 268.100 327.242, 264.575 328.796, 261 330.609 M 200.024 400.603 C 183.999 404.910, 172.170 418.726, 169.967 435.711 C 169.483 439.445, 168.370 450.375, 167.494 460 C 166.618 469.625, 165.689 478.512, 165.431 479.750 L 164.962 482 180.414 482 C 194.277 482, 195.915 481.820, 196.352 480.250 C 196.620 479.288, 197.615 470.850, 198.563 461.500 C 199.511 452.150, 200.862 443.067, 201.565 441.316 C 203.208 437.222, 208.102 434.609, 212.561 435.446 C 216.744 436.230, 221 441.111, 221 445.125 C 221 448.223, 218.368 473.098, 217.442 478.750 L 216.909 482 256 482 L 295.091 482 294.558 478.750 C 293.632 473.098, 291 448.223, 291 445.125 C 291 441.111, 295.256 436.230, 299.439 435.446 C 303.898 434.609, 308.792 437.222, 310.435 441.316 C 311.138 443.067, 312.489 452.150, 313.437 461.500 C 314.385 470.850, 315.380 479.288, 315.648 480.250 C 316.084 481.819, 317.712 482, 331.369 482 L 346.603 482 344.863 463.750 C 341.768 431.302, 341.509 429.683, 338.323 422.889 C 336.675 419.375, 333.310 414.429, 330.845 411.899 C 321.784 402.595, 311.980 399, 295.674 399 C 285.925 399, 285.692 399.055, 280.992 402.506 C 272.184 408.972, 265.475 411.426, 256.500 411.465 C 249.562 411.495, 247.637 411.087, 242 408.385 C 238.425 406.672, 233.751 403.860, 231.612 402.135 C 227.763 399.031, 227.615 399.001, 216.612 399.066 C 210.193 399.104, 203.188 399.753, 200.024 400.603" stroke="none" fill="#ffc200" fill-rule="evenodd"/>
</svg>