<svg xmlns="http://www.w3.org/2000/svg" width="512" height="512" viewBox="0 0 512 512" version="1.1"><path d="" stroke="none" fill="#ffc200" fill-rule="evenodd"/><path d="M 258.882 1.381 C 250.286 4.452, 244.659 9.502, 240.363 18 C 237.973 22.728, 237.565 24.777, 237.462 32.593 L 237.341 41.686 214.169 67.592 C 189.443 95.236, 188.356 96.921, 191.428 102.862 C 193.082 106.060, 197.531 109.003, 200.700 108.996 C 204.458 108.988, 209.084 104.621, 228.500 82.751 C 239.500 70.361, 248.561 60.285, 248.636 60.362 C 250.027 61.780, 371.973 274.360, 371.606 274.727 C 370.995 275.338, 162.232 319, 160 318.983 C 159.076 318.976, 147.868 300.525, 130.836 270.973 L 103.172 222.974 124.841 198.737 C 136.759 185.407, 147.521 173.202, 148.755 171.615 C 154.728 163.939, 147.232 153.147, 137.607 155.563 C 135.800 156.016, 126.823 165.332, 109.402 184.833 L 83.847 213.439 57.893 228.470 C 43.618 236.736, 29.296 245.615, 26.066 248.201 C 14.866 257.165, 5.692 271.929, 1.829 287.203 C -1.127 298.894, -0.456 316.182, 3.394 327.500 C 12.255 353.549, 34.043 372.405, 60.633 377.036 C 71.024 378.846, 85.656 377.836, 95.500 374.631 C 99.900 373.198, 103.806 372.020, 104.181 372.013 C 104.555 372.006, 107.701 376.979, 111.171 383.064 C 114.641 389.149, 118.768 395.689, 120.342 397.598 C 126.613 405.207, 140.024 408.884, 149.601 405.620 C 153.457 404.307, 154.643 404.231, 155.582 405.241 C 156.227 405.933, 169.029 427.875, 184.031 454 C 199.034 480.125, 212.428 503.016, 213.796 504.869 C 217.348 509.680, 223.880 512.326, 230.893 511.795 C 235.885 511.417, 238.747 510.071, 257 499.514 C 268.275 492.993, 278.677 486.795, 280.116 485.740 C 284.430 482.577, 287.143 476.685, 287.143 470.480 C 287.143 462.394, 284.191 457.783, 274.699 451.041 L 266.899 445.500 243.908 405.597 L 220.917 365.693 224.459 362.773 C 230.459 357.827, 233.281 351.858, 233.792 343.030 C 234.154 336.775, 233.854 334.458, 232.194 330.707 C 230.324 326.478, 230.293 326.046, 231.825 325.599 C 232.746 325.331, 267.378 318.070, 308.784 309.463 L 384.068 293.815 387.652 296.548 C 402.920 308.194, 426.375 303.589, 435.298 287.193 C 440.817 277.053, 440.915 266.222, 435.581 256 C 425.818 237.292, 295.086 12.704, 292.171 9.631 C 286.406 3.556, 277.979 -0.008, 269.500 0.045 C 265.650 0.068, 260.872 0.670, 258.882 1.381 M 408.992 12.759 C 405.989 14.258, 403.178 18.529, 388.757 43.500 C 379.302 59.873, 372.009 73.589, 372.008 75 C 372.007 79.024, 375.460 83.667, 379.429 84.976 C 382.474 85.982, 383.561 85.885, 386.674 84.330 C 389.899 82.718, 392.285 79.120, 406.668 54.176 C 415.650 38.597, 423.264 24.798, 423.587 23.510 C 424.343 20.497, 421.551 14.604, 418.705 13.208 C 414.459 11.124, 412.451 11.031, 408.992 12.759 M 266.500 20.830 C 260.714 22.768, 257.511 27.418, 258.274 32.771 C 258.630 35.272, 281.676 76.091, 328.258 156.724 C 366.458 222.847, 398.339 277.704, 399.106 278.629 C 405.427 286.251, 418.510 281.554, 418.493 271.669 C 418.486 267.977, 410.465 253.611, 348.323 146 C 309.733 79.175, 277.111 23.733, 275.830 22.795 C 273.004 20.727, 269.199 19.926, 266.500 20.830 M 494.923 49.923 C 488.482 56.365, 492.889 67, 502 67 C 505.258 67, 506.784 66.369, 509.077 64.077 C 515.518 57.635, 511.111 47, 502 47 C 498.742 47, 497.216 47.631, 494.923 49.923 M 433.338 84.721 C 397.975 105.125, 396 106.608, 396 112.769 C 396 118.864, 403.232 124.161, 408.870 122.195 C 414.127 120.363, 476.437 83.990, 478.750 81.404 C 482.133 77.621, 481.837 71.683, 478.077 67.923 C 472.506 62.352, 471.366 62.780, 433.338 84.721 M 163.700 124.573 C 160.233 128.040, 159.469 132.079, 161.479 136.315 C 166.648 147.207, 183.504 141.113, 180.568 129.414 C 178.732 122.102, 168.972 119.300, 163.700 124.573 M 428.500 142.136 C 421.041 146.330, 421.146 157.028, 428.684 160.883 C 430.135 161.625, 439.996 162, 458.034 162 L 485.200 162 488.600 158.600 C 493.091 154.109, 493.254 149.436, 489.083 144.766 L 486.167 141.500 458.333 141.256 C 439.152 141.088, 429.878 141.361, 428.500 142.136 M 64.967 248.374 C 52.942 255.286, 41.112 262.866, 38.071 265.607 C 19.823 282.054, 15.456 308.061, 27.219 330.233 C 33.711 342.470, 48.052 353.208, 61.680 356.037 C 69.081 357.574, 84.104 356.788, 90.500 354.530 C 94.733 353.036, 135.739 330.239, 138.385 327.909 C 139.061 327.314, 90.013 240.211, 87.062 236.767 C 86.717 236.364, 76.774 241.587, 64.967 248.374 M 180.535 336.100 L 157.570 341.039 140.750 350.672 C 131.498 355.971, 123.694 360.687, 123.406 361.152 C 122.808 362.119, 133.212 380.347, 136.304 383.750 C 137.486 385.050, 139.518 386, 141.120 386 C 142.901 386, 156.038 378.977, 177.888 366.346 C 216.524 344.009, 216.018 344.459, 211.741 336.266 C 209.709 332.375, 208.724 331.469, 206.376 331.331 C 204.794 331.237, 193.166 333.384, 180.535 336.100 M 187.991 384.573 C 180.021 389.207, 173.618 393.466, 173.763 394.038 C 174.021 395.059, 228.651 489.984, 229.427 490.761 C 229.645 490.978, 237.946 486.467, 247.874 480.736 L 265.926 470.315 258.767 465.407 L 251.608 460.500 227.554 418.819 C 214.324 395.894, 203.271 376.915, 202.991 376.643 C 202.711 376.371, 195.961 379.940, 187.991 384.573" stroke="none" fill="#ffc200" fill-rule="evenodd"/></svg>