<svg xmlns="http://www.w3.org/2000/svg" width="512" height="512" viewBox="0 0 512 512" version="1.1"><path d="" stroke="none" fill="#ffc200" fill-rule="evenodd"/><path d="M 154.174 10.314 L 152 12.629 152 70.314 L 152 128 148 128 L 144 128 144 98.174 L 144 68.349 141.686 66.174 C 139.473 64.095, 138.516 64, 119.860 64 C 100.758 64, 100.303 64.049, 98.174 66.314 C 96.043 68.583, 96 69.213, 96 98.264 L 96 127.899 63.250 128.199 C 31.077 128.495, 30.421 128.542, 26 130.856 C 19.869 134.066, 14.356 139.507, 11.164 145.500 L 8.500 150.500 8.500 280 L 8.500 409.500 10.856 414 C 14.066 420.131, 19.507 425.644, 25.500 428.836 L 30.500 431.500 117.250 431.771 C 164.963 431.921, 204 432.370, 204 432.770 C 204 433.171, 201.713 440.361, 198.917 448.749 L 193.834 464 179.091 464 C 164.974 464, 164.256 464.098, 162.174 466.314 C 160.251 468.362, 160 469.746, 160 478.314 L 160 488 118.174 488 L 76.349 488 74.174 490.314 C 71.195 493.486, 71.261 498.957, 74.314 501.826 L 76.629 504 256.140 504 L 435.651 504 437.826 501.686 C 440.805 498.514, 440.739 493.043, 437.686 490.174 C 435.386 488.014, 435.109 488, 393.686 488 L 352 488 352 478.174 C 352 469.197, 351.800 468.161, 349.686 466.174 C 347.527 464.147, 346.385 464, 332.769 464 L 318.166 464 313.083 448.749 C 310.287 440.361, 308 433.171, 308 432.770 C 308 432.370, 347.038 431.921, 394.750 431.771 L 481.500 431.500 486.500 428.836 C 492.493 425.644, 497.934 420.131, 501.144 414 L 503.500 409.500 503.500 280 L 503.500 150.500 500.836 145.500 C 497.620 139.462, 492.077 134.015, 486 130.921 C 482.569 129.174, 479.303 128.527, 472.250 128.196 C 467.162 127.957, 463 127.594, 463 127.389 C 463 127.185, 464.558 124.977, 466.461 122.483 C 471.314 116.125, 475.732 106.440, 478.162 96.833 C 479.867 90.088, 480.149 86.593, 479.754 77.070 C 478.926 57.113, 472.690 42.689, 458.974 29.007 C 450.399 20.452, 443.366 15.972, 431.665 11.608 C 423.859 8.696, 422.819 8.563, 408 8.563 C 393.181 8.563, 392.141 8.696, 384.335 11.608 C 372.634 15.972, 365.601 20.452, 357.026 29.007 C 343.310 42.689, 337.074 57.113, 336.246 77.070 C 335.851 86.593, 336.133 90.088, 337.838 96.833 C 340.268 106.440, 344.686 116.125, 349.539 122.483 C 351.442 124.977, 353 127.238, 353 127.509 C 353 127.779, 331.175 128, 304.500 128 L 256 128 256 86.174 L 256 44.349 253.686 42.174 C 251.473 40.095, 250.516 40, 231.860 40 C 212.758 40, 212.303 40.049, 210.174 42.314 C 208.014 44.614, 208 44.891, 208 86.314 L 208 128 204 128 L 200 128 200 70.174 L 200 12.349 197.686 10.174 C 195.473 8.095, 194.516 8, 175.860 8 C 156.758 8, 156.303 8.049, 154.174 10.314 M 168 116 L 168 208 176 208 L 184 208 184 116 L 184 24 176 24 L 168 24 168 116 M 390.942 27.287 C 387.335 28.517, 381.828 31.072, 378.703 32.966 C 353.579 48.193, 345.171 82.038, 360.090 107.890 L 363.200 113.280 381.600 94.900 L 400 76.520 400 50.760 C 400 30.805, 399.718 25.006, 398.750 25.026 C 398.063 25.040, 394.549 26.058, 390.942 27.287 M 416 48.421 L 416 72 439.500 72 C 452.655 72, 463 71.606, 463 71.105 C 463 70.613, 462.116 67.351, 461.036 63.855 C 458.717 56.348, 453.335 47.036, 448.187 41.622 C 441.351 34.432, 429.224 27.693, 419.250 25.542 L 416 24.841 416 48.421 M 224 132 L 224 208 232 208 L 240 208 240 132 L 240 56 232 56 L 224 56 224 132 M 112 144 L 112 208 120 208 L 128 208 128 144 L 128 80 120 80 L 112 80 112 144 M 393.100 106.400 L 374.720 124.800 380.110 127.910 C 397.616 138.013, 419.208 137.846, 436.500 127.474 C 439.800 125.494, 444.245 122.215, 446.378 120.187 C 453.568 113.351, 460.307 101.224, 462.458 91.250 L 463.159 88 437.319 88 L 411.480 88 393.100 106.400 M 35.594 145.041 C 31.500 146.266, 26.160 151.766, 24.996 155.956 C 24.379 158.177, 24.009 198.418, 24.006 263.750 L 24 368 256 368 L 488 368 487.994 263.750 C 487.991 196.358, 487.630 158.209, 486.975 155.848 C 485.545 150.701, 479.300 145.315, 473.828 144.508 C 471.448 144.157, 462.975 144.038, 455 144.244 C 441.344 144.596, 439.976 144.818, 431.500 148.056 C 422.735 151.406, 422.122 151.495, 408 151.486 C 393.905 151.477, 393.249 151.381, 384.500 148.042 L 375.500 144.607 315.750 144.288 L 256 143.969 256 175.985 L 256 208 260 208 L 264 208 264 182.174 C 264 149.009, 261.607 152, 288.140 152 C 307.242 152, 307.697 152.049, 309.826 154.314 C 311.963 156.590, 312 157.163, 312 188.140 L 312 219.651 309.686 221.826 L 307.371 224 175.860 224 L 44.349 224 42.174 221.686 C 40.037 219.410, 40 218.837, 40 187.860 L 40 156.349 42.314 154.174 C 44.527 152.095, 45.484 152, 64.140 152 C 90.348 152, 88 149.016, 88 182.314 L 88 208 92 208 L 96 208 96 176 L 96 144 67.250 144.086 C 51.438 144.133, 37.192 144.563, 35.594 145.041 M 144 176 L 144 208 148 208 L 152 208 152 176 L 152 144 148 144 L 144 144 144 176 M 200 176 L 200 208 204 208 L 208 208 208 176 L 208 144 204 144 L 200 144 200 176 M 354.240 178.260 C 337.411 195.107, 336 196.796, 336 200.086 C 336 204.730, 339.337 208, 344.076 208 C 347.197 208, 349.038 206.483, 363.500 192 L 379.477 176 415.564 176 L 451.651 176 453.826 173.686 C 456.805 170.514, 456.739 165.043, 453.686 162.174 C 451.390 160.018, 451.049 160, 411.925 160 L 372.480 160 354.240 178.260 M 56 188 L 56 208 64 208 L 72 208 72 188 L 72 168 64 168 L 56 168 56 188 M 280 188 L 280 208 288 208 L 296 208 296 188 L 296 168 288 168 L 280 168 280 188 M 42.174 234.314 C 39.195 237.486, 39.261 242.957, 42.314 245.826 C 44.624 247.995, 44.736 248, 92.140 248 L 139.651 248 141.826 245.686 C 144.805 242.514, 144.739 237.043, 141.686 234.174 C 139.376 232.005, 139.264 232, 91.860 232 L 44.349 232 42.174 234.314 M 154.174 234.314 C 151.195 237.486, 151.261 242.957, 154.314 245.826 C 156.267 247.660, 157.804 248, 164.140 248 C 170.699 248, 171.927 247.706, 173.826 245.686 C 176.805 242.514, 176.739 237.043, 173.686 234.174 C 171.733 232.340, 170.196 232, 163.860 232 C 157.301 232, 156.073 232.294, 154.174 234.314 M 308.796 242.542 C 303.459 245.321, 299.354 249.979, 297.052 255.868 C 295.648 259.457, 290.988 263.261, 254.052 290.961 L 212.625 322.029 209.563 319.071 C 199.467 309.321, 181.694 309.971, 173.376 320.396 C 171.794 322.378, 170.160 324, 169.744 324 C 169.133 324, 109.696 299.451, 91.935 291.863 C 88.381 290.345, 87.088 289.133, 86.097 286.390 C 82.977 277.763, 74.181 272, 64.133 272 C 50.010 272, 40 281.955, 40 296 C 40 310.163, 50.113 320.019, 64.616 319.990 C 70.963 319.978, 78.888 316.287, 82.624 311.604 C 84.206 309.622, 85.840 308, 86.256 308 C 86.870 308, 146.413 332.594, 164.192 340.191 C 167.741 341.708, 169.030 342.860, 169.482 344.919 C 170.428 349.224, 175.905 355.047, 181.429 357.619 C 188.217 360.780, 195.802 360.781, 202.500 357.623 C 208.637 354.728, 211.228 351.998, 214.202 345.292 C 216.411 340.311, 218.107 338.906, 257.937 309.041 L 299.375 277.971 302.437 280.929 C 312.326 290.479, 329.872 290.071, 338.267 280.095 C 340.659 277.252, 341.200 277.035, 343.226 278.103 C 347.312 280.258, 417.402 321.133, 421.161 323.553 C 423.464 325.036, 425.055 326.973, 425.451 328.776 C 427.183 336.663, 438.035 343.980, 448 343.980 C 454.182 343.980, 462.080 340.811, 465.688 336.882 C 474.132 327.688, 473.730 310.438, 464.882 302.312 C 455.312 293.523, 437.801 294.317, 429.733 303.905 C 427.341 306.748, 426.800 306.965, 424.774 305.897 C 420.688 303.742, 350.598 262.867, 346.839 260.447 C 344.501 258.942, 342.946 257.032, 342.536 255.162 C 341.606 250.928, 335.764 244.580, 330.538 242.123 C 324.126 239.109, 315.055 239.284, 308.796 242.542 M 317.465 256.961 C 309.848 260.014, 311.844 271.333, 320 271.333 C 324.052 271.333, 327.333 268.052, 327.333 264 C 327.333 258.989, 321.963 255.158, 317.465 256.961 M 61.465 288.961 C 53.848 292.014, 55.844 303.333, 64 303.333 C 68.052 303.333, 71.333 300.052, 71.333 296 C 71.333 290.989, 65.963 287.158, 61.465 288.961 M 445.465 312.961 C 437.848 316.014, 439.844 327.333, 448 327.333 C 452.052 327.333, 455.333 324.052, 455.333 320 C 455.333 314.989, 449.963 311.158, 445.465 312.961 M 354.174 322.314 C 351.195 325.486, 351.261 330.957, 354.314 333.826 C 356.485 335.865, 357.591 336, 372.140 336 C 387.061 336, 387.734 335.912, 389.826 333.686 C 392.805 330.514, 392.739 325.043, 389.686 322.174 C 387.515 320.135, 386.409 320, 371.860 320 C 356.939 320, 356.266 320.088, 354.174 322.314 M 189.465 328.961 C 181.848 332.014, 183.844 343.333, 192 343.333 C 196.052 343.333, 199.333 340.052, 199.333 336 C 199.333 330.989, 193.963 327.158, 189.465 328.961 M 322.174 346.314 C 319.195 349.486, 319.261 354.957, 322.314 357.826 C 324.590 359.963, 325.163 360, 356.140 360 L 387.651 360 389.826 357.686 C 392.805 354.514, 392.739 349.043, 389.686 346.174 C 387.410 344.037, 386.837 344, 355.860 344 L 324.349 344 322.174 346.314 M 24 392.257 C 24 396.798, 24.442 402.056, 24.983 403.942 C 26.283 408.474, 31.544 413.779, 35.956 415.004 C 40.816 416.354, 471.184 416.354, 476.044 415.004 C 480.456 413.779, 485.717 408.474, 487.017 403.942 C 487.558 402.056, 488 396.798, 488 392.257 L 488 384 256 384 L 24 384 24 392.257 M 42.174 394.314 C 39.195 397.486, 39.261 402.957, 42.314 405.826 C 44.575 407.949, 45.270 408, 72.140 408 C 99.604 408, 99.655 407.996, 101.826 405.686 C 104.805 402.514, 104.739 397.043, 101.686 394.174 C 99.425 392.051, 98.730 392, 71.860 392 C 44.396 392, 44.345 392.004, 42.174 394.314 M 114.174 394.314 C 111.195 397.486, 111.261 402.957, 114.314 405.826 C 116.267 407.660, 117.804 408, 124.140 408 C 130.699 408, 131.927 407.706, 133.826 405.686 C 136.805 402.514, 136.739 397.043, 133.686 394.174 C 131.733 392.340, 130.196 392, 123.860 392 C 117.301 392, 116.073 392.294, 114.174 394.314 M 217.083 447.251 C 214.287 455.639, 212 462.839, 212 463.251 C 212 463.663, 231.800 464, 256 464 C 280.200 464, 300 463.663, 300 463.251 C 300 462.839, 297.713 455.639, 294.917 447.251 L 289.834 432 256 432 L 222.166 432 217.083 447.251 M 176 484 L 176 488 256 488 L 336 488 336 484 L 336 480 256 480 L 176 480 176 484" stroke="none" fill="#ffc200" fill-rule="evenodd"/></svg>