<svg xmlns="http://www.w3.org/2000/svg" width="512" height="512" viewBox="0 0 512 512" version="1.1"><path d="" stroke="none" fill="#080404" fill-rule="evenodd"/><path d="M 288.500 0.648 C 245.037 7.405, 209.219 33.647, 190.423 72.500 C 181.058 91.859, 177.549 107.523, 177.655 129.500 C 177.823 164.548, 191.199 195.871, 216.539 220.560 C 236.134 239.652, 261.875 252.117, 289.895 256.084 C 300.239 257.548, 321.582 256.732, 332 254.473 C 370.148 246.201, 402.754 221.412, 420.203 187.415 C 430.408 167.530, 434.332 150.988, 434.297 128 C 434.252 98.508, 426.150 74.314, 408.292 50.341 C 402.275 42.262, 399.118 40.490, 394.329 42.504 C 389.058 44.720, 388.374 51.056, 392.850 56.215 C 397.873 62.005, 403.783 71.354, 407.913 80.044 C 434.796 136.608, 410.600 203.578, 353.511 230.622 C 348.310 233.086, 339.655 236.287, 334.277 237.735 C 325.376 240.134, 322.843 240.369, 306 240.369 C 289.157 240.369, 286.624 240.134, 277.723 237.735 C 239.383 227.406, 208.335 197.180, 197.563 159.695 C 186.209 120.182, 197.215 77.909, 226.518 48.487 C 262.553 12.304, 319.446 5.055, 363.231 31.068 C 371.820 36.171, 375.318 36.494, 378.751 32.504 C 381.782 28.980, 381.226 24.502, 377.368 21.358 C 373.959 18.581, 359.046 10.751, 352 8.039 C 338.106 2.691, 327.379 0.807, 309 0.486 C 299.375 0.318, 290.150 0.391, 288.500 0.648 M 291 31.693 C 289.625 31.924, 285.177 33.003, 281.116 34.090 C 245.974 43.500, 219.650 70.693, 210.833 106.693 C 207.997 118.269, 207.816 136.950, 210.426 148.500 C 218.150 182.675, 242.060 209.609, 274.500 220.676 C 328.411 239.069, 386.183 207.683, 400.693 152.120 C 404.153 138.871, 404.360 119.600, 401.180 106.693 C 396.405 87.311, 386.851 70.712, 372.933 57.619 C 353.826 39.645, 331.326 30.836, 305.292 31.136 C 298.806 31.211, 292.375 31.461, 291 31.693 M 297.851 47.114 C 264.976 49.820, 236.299 74.202, 226.829 107.500 C 223.734 118.385, 223.713 137.819, 226.785 149.130 C 236.563 185.139, 268.917 210, 306 210 C 343.156 210, 375.417 185.212, 385.214 149.136 C 388.290 137.805, 388.267 118.382, 385.164 107.500 C 378.503 84.140, 363.403 65.703, 342.501 55.406 C 328.034 48.279, 314.420 45.751, 297.851 47.114 M 298.271 63.976 C 295.779 65.496, 293.528 68.975, 288.407 79.223 C 284.758 86.525, 281.631 92.656, 281.457 92.847 C 281.283 93.037, 275.146 94.074, 267.820 95.150 C 260.494 96.227, 253.235 97.600, 251.689 98.200 C 248.052 99.614, 244.346 104.544, 243.503 109.088 C 242.380 115.150, 245.047 119.559, 256.160 130.006 L 266.272 139.512 264.136 152.155 C 262.961 159.109, 262.002 166.532, 262.004 168.650 C 262.011 176.319, 268.374 182.321, 276.500 182.325 C 279.515 182.327, 283.641 180.664, 293.252 175.577 L 306.003 168.826 318.275 175.284 C 325.025 178.836, 331.977 182.056, 333.724 182.439 C 338.199 183.422, 345.364 180.092, 347.970 175.818 C 350.528 171.622, 350.513 167.833, 347.876 152.227 L 345.752 139.655 356.277 129.578 C 367.545 118.789, 369.777 114.953, 368.559 108.464 C 367.785 104.337, 364.033 99.662, 360.270 98.136 C 358.747 97.519, 351.493 96.141, 344.151 95.075 C 336.810 94.009, 330.673 92.993, 330.515 92.818 C 330.357 92.643, 327.242 86.525, 323.593 79.223 C 318.472 68.975, 316.221 65.496, 313.729 63.976 C 309.495 61.394, 302.505 61.394, 298.271 63.976 M 128.021 82.477 C 125.497 85.164, 125.023 90.117, 127.055 92.566 C 128.855 94.735, 150.459 106, 152.818 106 C 153.957 106, 156.114 104.946, 157.611 103.658 C 160.805 100.911, 161.277 96.068, 158.634 93.148 C 156.172 90.427, 135.680 80, 132.795 80 C 131.450 80, 129.301 81.115, 128.021 82.477 M 299.467 92.072 C 292.090 106.996, 291.355 107.531, 274.708 110.096 C 267.994 111.131, 262.077 111.982, 261.560 111.989 C 261.043 111.995, 265.172 116.626, 270.736 122.279 C 276.948 128.592, 281.138 133.703, 281.595 135.524 C 282.048 137.329, 281.512 143.566, 280.224 151.466 C 279.061 158.603, 278.268 164.602, 278.463 164.796 C 278.658 164.991, 284.197 162.417, 290.772 159.075 C 298.392 155.203, 303.950 153, 306.101 153 C 308.267 153, 313.722 155.180, 321.322 159.083 C 327.836 162.429, 333.340 164.993, 333.552 164.782 C 333.764 164.570, 333.005 158.888, 331.865 152.156 C 328.962 135.003, 329.065 134.676, 341.279 122.264 C 346.835 116.619, 350.957 111.995, 350.440 111.989 C 345.202 111.925, 324.523 107.832, 322.041 106.367 C 319.644 104.952, 317.379 101.533, 312.689 92.254 C 309.285 85.519, 306.260 80.007, 305.967 80.004 C 305.673 80.002, 302.748 85.432, 299.467 92.072 M 466 85.592 C 453.645 92.137, 451.667 93.843, 451.667 97.953 C 451.667 101.747, 455.436 106, 458.800 106 C 461.329 106, 482.965 94.964, 484.783 92.747 C 485.823 91.478, 486.323 88.870, 486.115 85.789 C 485.944 83.242, 481.981 79.998, 479.061 80.015 C 477.653 80.024, 471.775 82.533, 466 85.592 M 124.635 126.073 C 120.359 129.436, 121.112 135.972, 126.072 138.537 C 129.738 140.433, 150.339 140.558, 154 138.706 C 157.575 136.898, 159.289 132.891, 157.971 129.424 C 156.117 124.548, 154.545 124.066, 140.385 124.032 C 128.603 124.003, 127.002 124.211, 124.635 126.073 M 456.789 125.363 C 452.136 128.898, 452.787 136.069, 458 138.706 C 461.661 140.558, 482.262 140.433, 485.928 138.537 C 490.888 135.972, 491.641 129.436, 487.365 126.073 C 484.998 124.211, 483.397 124.003, 471.615 124.032 C 462.443 124.054, 457.986 124.454, 456.789 125.363 M 139.592 163.569 C 127.031 170.423, 126 171.373, 126 176.082 C 126 179.001, 126.619 180.341, 128.734 182.006 C 132.371 184.866, 134.461 184.345, 147.645 177.284 C 159.770 170.789, 161.762 168.484, 159.888 163.108 C 157.529 156.342, 152.633 156.453, 139.592 163.569 M 454 160 C 451.078 162.922, 450.994 168.366, 453.829 171.129 C 456.212 173.453, 476.897 184, 479.071 184 C 482.285 184, 486.333 179.636, 486.333 176.171 C 486.333 171.724, 484.085 169.712, 472.160 163.484 C 460.859 157.582, 457.133 156.867, 454 160 M 457.163 257.051 C 452.121 258.068, 453.552 257.285, 397.025 289.926 L 353.551 315.030 351.319 310.638 C 348.266 304.632, 340.848 298.329, 334.672 296.495 C 330.802 295.346, 323.954 294.999, 305.068 294.997 L 280.500 294.993 273.241 292.035 C 252.626 283.634, 237.152 280, 222 280 C 195.189 280, 171.221 290.856, 149.828 312.690 C 142.872 319.789, 130 336.450, 130 338.355 C 130 338.959, 126.513 336, 122.250 331.779 C 114.370 323.977, 110.416 321.573, 107.259 322.664 C 106.291 322.998, 101.566 327.135, 96.758 331.857 L 88.017 340.441 83.247 335.743 C 80.340 332.880, 77.187 330.787, 75.173 330.385 C 71.939 329.738, 71.342 330.249, 46.934 354.585 C 23.905 377.547, 22 379.712, 22 382.923 C 22 386.106, 23.681 388.086, 41.930 406.400 C 60.304 424.838, 62.135 426.400, 65.380 426.400 C 70.143 426.400, 73 423.665, 73 419.106 C 73 415.809, 71.701 414.221, 56.757 399.257 L 40.515 382.992 57.511 365.996 L 74.507 349 129.757 404.257 L 185.008 459.514 168.009 476.491 L 151.011 493.467 121.217 463.733 C 88.905 431.487, 88.625 431.284, 83.455 436.455 C 81.847 438.062, 81 440.040, 81 442.188 C 81 445.161, 84.106 448.572, 114.267 478.733 C 145.241 509.708, 147.774 512, 151.022 512 C 154.274 512, 156.897 509.613, 189.755 476.745 C 221.646 444.845, 225 441.180, 225 438.234 C 225 435.542, 223.679 433.595, 217.367 426.989 L 209.735 419 229.913 419 C 250.003 419, 250.102 418.989, 252.545 416.545 C 255.793 413.298, 255.793 408.702, 252.545 405.455 L 250.091 403 221.788 403 L 193.486 403 167.122 376.623 L 140.759 350.245 145.054 343.873 C 164.038 315.708, 188.061 298.946, 213.603 296.044 C 228.696 294.329, 243.282 297.140, 265.804 306.103 L 278.108 311 303.603 311 C 330.893 311, 333.022 311.338, 336.439 316.217 C 338.424 319.050, 338.445 325.239, 336.483 329.033 C 333.376 335.042, 333.766 335, 281.004 335 L 232.909 335 230.455 337.455 C 227.475 340.434, 227.250 344.853, 229.912 348.139 L 231.824 350.500 282.662 350.500 L 333.500 350.500 338.676 347.770 C 341.523 346.269, 345.230 343.344, 346.914 341.270 C 348.598 339.197, 350.769 336.527, 351.738 335.338 C 353.743 332.877, 456.350 273.452, 460.310 272.458 C 464.037 271.523, 469.646 273.694, 471.983 276.976 C 474.709 280.804, 474.609 286.685, 471.750 290.775 C 468.181 295.879, 339.723 395.736, 332 399.409 L 325.500 402.500 302.500 402.788 C 289.568 402.949, 278.334 403.534, 276.836 404.123 C 273.158 405.571, 271.375 410.078, 272.964 413.914 C 275.005 418.842, 277.591 419.257, 303.213 418.768 C 325.147 418.350, 326.929 418.173, 333.880 415.717 C 337.939 414.284, 343.564 411.572, 346.380 409.690 C 352.838 405.376, 476.329 308.898, 480.835 304.647 C 488.948 296.993, 491.767 286.590, 488.642 275.841 C 484.837 262.751, 470.712 254.319, 457.163 257.051 M 103.728 346.769 L 99.030 351.538 147.498 399.998 L 195.966 448.458 201 443.500 L 206.034 438.542 157.771 390.271 C 131.226 363.722, 109.264 342, 108.966 342 C 108.668 342, 106.311 344.146, 103.728 346.769" stroke="none" fill="#040404" fill-rule="evenodd"/></svg>