<svg xmlns="http://www.w3.org/2000/svg" width="512" height="512" viewBox="0 0 512 512" version="1.1"><path d="" stroke="none" fill="#594f3e" fill-rule="evenodd"/><path d="M 244.500 1.533 C 191.171 8.506, 144.427 31.513, 106.470 69.470 C 67.455 108.485, 43.772 157.989, 37.944 212.709 C 36.199 229.088, 37.197 262.288, 39.892 277.500 C 43.800 299.571, 50.580 320.730, 60.201 340.888 L 65.159 351.276 60.128 356.388 C 50.395 366.278, 46.600 381.105, 50.711 393.185 L 52.646 398.871 30.277 421.185 C 10.371 441.043, 7.501 444.320, 4.204 450.948 C 0.601 458.192, 0.500 458.700, 0.500 469.500 C 0.500 480.303, 0.601 480.808, 4.226 488.142 C 8.781 497.359, 15.433 503.889, 24.777 508.315 C 31.072 511.297, 32.203 511.500, 42.552 511.500 C 53.292 511.500, 53.814 511.395, 61.052 507.796 C 67.682 504.498, 70.958 501.627, 90.885 481.653 L 113.269 459.214 116.885 460.809 C 119.293 461.871, 123.505 462.414, 129.500 462.436 C 137.281 462.464, 139.313 462.092, 144.500 459.686 C 147.800 458.155, 152.800 454.639, 155.612 451.872 L 160.724 446.841 171.112 451.799 C 191.410 461.487, 212.146 468.128, 234.690 472.160 C 245.920 474.169, 250.768 474.451, 274 474.450 C 302.964 474.449, 311.298 473.546, 332.901 468.065 C 421.162 445.672, 489.382 374.343, 507.507 285.500 C 513.522 256.014, 513.522 218.986, 507.507 189.500 C 496.856 137.293, 468.452 89.968, 426.500 54.530 C 398.093 30.534, 359.986 12.205, 322.500 4.505 C 300.503 -0.014, 266.294 -1.317, 244.500 1.533 M 259 16.038 C 214.735 18.982, 171.875 35.637, 136.241 63.741 C 119.709 76.779, 101.256 96.999, 88.548 116 C 80.029 128.738, 68.840 152.030, 63.726 167.669 C 55.815 191.863, 52.793 211.165, 52.793 237.500 C 52.793 273.636, 59.933 304.476, 75.559 335.831 C 87.175 359.141, 99.379 376.123, 117.628 394.372 C 135.845 412.589, 152.862 424.826, 176.044 436.379 C 207.671 452.142, 237.926 459.143, 274.500 459.164 C 311.143 459.185, 341.957 451.990, 373.500 436.048 C 396.917 424.214, 413.114 412.598, 430.917 394.875 C 448.201 377.668, 460.743 360.513, 472.025 338.646 C 488.487 306.740, 496.200 274.469, 496.200 237.500 C 496.200 200.583, 488.484 168.255, 472.086 136.471 C 454.127 101.662, 429.104 73.719, 396.173 51.701 C 385.548 44.597, 360.667 32.223, 348.500 27.993 C 320.827 18.371, 288.618 14.069, 259 16.038 M 247 51.640 C 172.875 62.906, 112.074 117.248, 93.062 189.226 C 88.031 208.271, 86.689 220.785, 87.293 243 C 87.879 264.523, 90.122 278.106, 96.059 296.062 C 102.624 315.921, 117.729 343.381, 129.257 356.417 C 132.837 360.465, 134.197 361.333, 136.961 361.333 C 140.837 361.333, 145 357.338, 145 353.619 C 145 352.370, 142.459 348.008, 139.353 343.924 C 112.451 308.554, 99.802 267.399, 102.991 225.615 C 104.841 201.377, 110.306 181.551, 120.939 160.500 C 135.095 132.476, 154.495 110.654, 180.446 93.564 C 230.548 60.570, 295.604 56.481, 349.500 82.940 C 385.260 100.495, 411.544 126.777, 429.065 162.500 C 465.231 236.235, 443.693 325.071, 377.500 375.181 C 345.197 399.636, 302.813 412.069, 262.281 408.982 C 227.348 406.320, 196.916 394.583, 168.076 372.647 C 163.992 369.541, 159.630 367, 158.381 367 C 154.662 367, 150.667 371.163, 150.667 375.039 C 150.667 377.803, 151.535 379.163, 155.583 382.743 C 168.619 394.271, 196.079 409.376, 215.938 415.941 C 233.894 421.878, 247.477 424.121, 269 424.707 C 291.215 425.311, 303.729 423.969, 322.774 418.938 C 387.788 401.765, 439.357 349.847, 456.305 284.500 C 464.017 254.768, 464.017 220.232, 456.305 190.500 C 441.149 132.066, 398.815 84.600, 341.774 62.089 C 331.250 57.935, 313.692 53.410, 300.872 51.545 C 287.582 49.613, 260.018 49.662, 247 51.640 M 204.804 101.548 C 176.933 108.307, 155.093 130.300, 148.505 158.244 C 146.315 167.531, 146.315 307.469, 148.505 316.756 C 154.074 340.376, 170.662 360.098, 192.796 369.414 C 206.088 375.009, 205.436 374.969, 284.572 374.985 C 368.646 375.002, 363.642 375.506, 373.074 366.074 C 381.688 357.460, 384.292 346.096, 380.324 334.428 C 378.261 328.363, 369.194 318.879, 363.735 317.078 L 360 315.845 360 300.123 L 360 284.402 363.652 283.081 C 368.358 281.379, 375.409 274.861, 378.821 269.058 L 381.500 264.500 381.804 234.304 C 382.099 204.969, 382.049 204.049, 380.054 202.054 C 377.646 199.646, 372.306 199.326, 369.441 201.417 C 367.620 202.747, 367.469 204.591, 367 231.167 C 366.519 258.441, 366.417 259.617, 364.276 262.618 C 363.053 264.333, 360.803 266.583, 359.276 267.618 C 356.640 269.405, 352.895 269.525, 285 270 L 213.500 270.500 208.377 273.203 C 201.817 276.663, 195.568 283.773, 193.431 290.209 C 191.356 296.454, 191.867 307.897, 194.447 313 C 196.864 317.779, 203.659 324.709, 208.500 327.333 C 212.471 329.484, 213.024 329.504, 284 330 C 353.395 330.485, 355.603 330.559, 359 332.517 C 363.815 335.291, 367.373 342.494, 366.425 347.546 C 365.409 352.961, 359.383 358.674, 353.822 359.492 C 351.445 359.841, 318.675 359.967, 281 359.772 C 219.568 359.453, 211.890 359.237, 206.592 357.680 C 184.275 351.120, 167.450 332.701, 163.495 310.499 C 161.414 298.817, 161.414 176.183, 163.495 164.501 C 167.495 142.044, 184.402 123.715, 207 117.335 C 213.030 115.633, 218.668 115.500, 285 115.500 C 353.355 115.500, 356.622 115.583, 359.276 117.382 C 360.803 118.417, 363.053 120.667, 364.276 122.382 C 366.417 125.383, 366.519 126.559, 367 153.833 C 367.469 180.409, 367.620 182.253, 369.441 183.583 C 372.274 185.651, 377.645 185.355, 380 183 C 381.906 181.094, 382 179.667, 382 152.678 C 382 118.979, 381.711 117.563, 373.074 108.926 C 363.629 99.481, 368.724 99.987, 284.072 100.083 C 225.126 100.150, 209.368 100.441, 204.804 101.548 M 201.329 176.504 C 197.433 178.142, 197 179.439, 197 189.471 C 197 199.642, 198.600 202.400, 204.500 202.400 C 210.425 202.400, 212 199.654, 212 189.323 C 212 184.673, 211.559 180.045, 211.021 179.039 C 209.499 176.194, 204.916 174.995, 201.329 176.504 M 321.329 176.504 C 317.433 178.142, 317 179.439, 317 189.471 C 317 199.642, 318.600 202.400, 324.500 202.400 C 330.425 202.400, 332 199.654, 332 189.323 C 332 184.673, 331.559 180.045, 331.021 179.039 C 329.499 176.194, 324.916 174.995, 321.329 176.504 M 243.174 189.314 C 238.220 194.588, 242.283 201.912, 252.863 206.782 C 263.319 211.594, 275.909 209.374, 284.250 201.248 C 288.771 196.843, 289.281 192.552, 285.686 189.174 C 282.413 186.100, 278.046 186.387, 273.532 189.974 C 267.120 195.070, 261.251 194.913, 254.784 189.472 C 250.967 186.260, 246.106 186.194, 243.174 189.314 M 219.275 285.971 C 214.174 287.183, 210.965 289.824, 208.887 294.522 C 207.312 298.082, 207.136 299.660, 207.917 303.187 C 209.027 308.196, 214.252 313.400, 219.154 314.381 C 220.857 314.721, 249.644 315, 283.125 315 L 344 315 344 300 L 344 285 283.250 285.102 C 249.837 285.159, 221.049 285.550, 219.275 285.971 M 70.803 367.680 C 64.997 373.751, 63.357 383.787, 66.898 391.583 C 69.460 397.224, 114.756 442.531, 120.393 445.091 C 128.333 448.697, 139.305 446.734, 144.844 440.717 L 147.188 438.171 144.844 436.944 C 137.856 433.285, 117.856 416.918, 106.460 405.530 C 95.710 394.789, 79.422 374.928, 74.500 366.560 C 73.600 365.031, 73.229 365.143, 70.803 367.680 M 40.773 432.750 C 17.701 455.918, 15.652 458.914, 15.652 469.500 C 15.652 484.624, 27.392 496.375, 42.500 496.375 C 53.079 496.375, 56.681 493.892, 79.990 470.534 L 100.481 450.001 81.500 431 C 71.061 420.550, 62.276 412, 61.978 412 C 61.681 412, 52.138 421.337, 40.773 432.750" stroke="none" fill="#594f3e" fill-rule="evenodd"/></svg>