<svg xmlns="http://www.w3.org/2000/svg" width="512" height="512" viewBox="0 0 512 512" version="1.1"><path d="" stroke="none" fill="#080404" fill-rule="evenodd"/><path d="M 188.500 9.973 C 179.006 12.499, 174.683 14.427, 166.797 19.651 C 153.119 28.711, 142.139 44.318, 137.968 60.623 C 135.554 70.065, 135.367 85.677, 137.556 95 C 139.793 104.522, 146.010 116.558, 152.662 124.246 C 155.873 127.956, 179.577 150.119, 205.338 173.496 C 249.865 213.903, 252.364 216, 255.994 216 C 259.631 216, 262.190 213.835, 309.656 170.614 C 361.876 123.065, 364.527 120.278, 370.506 106.634 C 374.375 97.808, 375.969 89.595, 375.985 78.410 C 376.030 47.850, 357.574 21.570, 329.118 11.674 C 317.893 7.770, 303.072 6.893, 291.570 9.452 C 282.090 11.561, 270.463 17.308, 262.250 23.943 L 256 28.992 249.867 24.050 C 232.212 9.824, 209.039 4.508, 188.500 9.973 M 198.978 25.070 C 179.850 27.210, 162.011 41.546, 155.496 60.010 C 151.397 71.630, 151.656 86.979, 156.144 98.366 C 160.434 109.250, 164.437 113.448, 210.300 155.174 C 234.981 177.628, 255.546 196, 256 196 C 256.454 196, 277.019 177.628, 301.700 155.174 C 348.447 112.644, 352.138 108.728, 356.101 97.453 C 363.728 75.753, 358.430 53.872, 341.828 38.501 C 331.552 28.988, 320.295 24.663, 306 24.737 C 291.714 24.811, 282.801 28.612, 268.024 40.933 C 256.616 50.445, 255.384 50.445, 243.976 40.933 C 233.815 32.461, 229.441 29.786, 221.500 27.186 C 214.568 24.916, 206.839 24.190, 198.978 25.070 M 72.419 106.386 C 66.369 109.203, 60.995 114.466, 58.484 120.036 C 57.131 123.035, 56.250 123.908, 55.079 123.407 C 48.087 120.413, 44.967 119.834, 38 120.236 C 26.061 120.925, 16.830 126.863, 11.164 137.500 L 8.500 142.500 8.225 216.636 L 7.951 290.771 32.097 335.136 L 56.244 379.500 89.518 413 C 110.943 434.570, 123.627 448.103, 125.137 451 C 127.352 455.251, 127.500 456.716, 127.819 477.500 C 128.137 498.205, 128.280 499.632, 130.253 501.750 L 132.349 504 184 504 L 235.651 504 237.826 501.686 L 240 499.371 240 444.161 C 240 392.669, 239.873 388.589, 238.118 383.596 C 235.379 375.803, 233.476 373.379, 211.728 349.992 L 192 328.777 192 287.048 L 192 245.319 188.970 239.255 C 185.720 232.752, 181.746 229.102, 174.357 225.834 C 170.682 224.208, 168.300 223.884, 162.623 224.237 C 158.705 224.481, 154.713 225.025, 153.750 225.447 C 152.108 226.167, 152 224.580, 152 199.767 L 152 173.319 148.970 167.255 C 145.720 160.752, 141.746 157.102, 134.357 153.834 C 130.682 152.208, 128.300 151.884, 122.623 152.237 C 118.705 152.481, 114.713 153.025, 113.750 153.447 C 112.129 154.158, 112 153.151, 112 139.767 C 112 125.683, 111.924 125.167, 108.970 119.255 C 102.279 105.866, 85.911 100.103, 72.419 106.386 M 415.146 107.085 C 408.577 110.368, 405.344 113.815, 402.072 121.028 C 400.341 124.846, 400.041 127.600, 400.022 139.857 C 400.002 153.149, 399.870 154.158, 398.250 153.453 C 397.288 153.035, 393.439 152.485, 389.698 152.231 C 377.722 151.417, 368.320 156.670, 363.117 167.081 L 360 173.319 360 199.767 C 360 224.578, 359.892 226.167, 358.250 225.453 C 357.288 225.035, 353.439 224.485, 349.698 224.231 C 337.722 223.417, 328.320 228.670, 323.117 239.081 L 320 245.319 320 287.094 L 320 328.868 300.323 349.963 C 278.672 373.174, 276.634 375.766, 273.882 383.596 C 272.127 388.590, 272 392.672, 272 444.301 L 272 499.651 274.314 501.826 L 276.629 504 328.140 504 L 379.651 504 381.747 501.750 C 383.720 499.632, 383.863 498.205, 384.181 477.500 C 384.500 456.716, 384.648 455.251, 386.863 451 C 388.373 448.103, 401.057 434.570, 422.482 413 L 455.756 379.500 479.903 335.136 L 504.049 290.771 503.775 216.636 L 503.500 142.500 500.836 137.500 C 495.170 126.863, 485.939 120.925, 474 120.236 C 467.033 119.834, 463.913 120.413, 456.921 123.407 C 455.750 123.908, 454.869 123.035, 453.516 120.036 C 447.092 105.790, 429.571 99.877, 415.146 107.085 M 80.094 121.331 C 78.220 121.974, 75.745 123.770, 74.594 125.323 C 72.529 128.106, 72.496 128.998, 72.227 190.323 L 71.954 252.500 80.097 262.828 L 88.240 273.156 91.099 268.150 C 92.672 265.397, 94.418 262.860, 94.979 262.513 C 96.533 261.552, 96.259 132.562, 94.694 128.094 C 92.610 122.146, 86.271 119.210, 80.094 121.331 M 424.094 121.331 C 422.220 121.974, 419.745 123.770, 418.594 125.323 C 416.525 128.112, 416.497 128.936, 416.222 194.713 C 415.985 251.711, 416.153 261.513, 417.394 262.891 C 418.191 263.776, 419.953 266.459, 421.310 268.854 L 423.778 273.207 431.889 262.957 L 440 252.707 439.944 192.103 C 439.902 147.847, 439.565 130.581, 438.694 128.094 C 436.610 122.146, 430.271 119.210, 424.094 121.331 M 35.315 137.102 C 31.026 138.343, 26.300 143.260, 25.041 147.791 C 24.382 150.165, 24.009 175.563, 24.006 218.329 L 24 285.158 47.177 327.829 L 70.354 370.500 104.122 404.500 C 145.866 446.530, 143.359 442.442, 143.828 469.250 L 144.156 488 184.123 488 L 224.090 488 223.795 439.750 C 223.509 392.974, 223.435 391.362, 221.378 387 C 218.479 380.852, 118.240 273.528, 114.527 272.596 C 111.168 271.753, 106.924 273.778, 105.294 277 C 104.599 278.375, 104.038 282.650, 104.049 286.500 L 104.068 293.500 131.034 327.744 C 145.865 346.578, 158 362.414, 158 362.935 C 158 364.541, 145.903 373.303, 144.975 372.370 C 144.499 371.892, 124.293 346.300, 100.073 315.500 L 56.037 259.500 56.013 205.500 C 55.999 173.208, 55.593 150.075, 55.004 147.956 C 53.779 143.544, 48.474 138.283, 43.942 136.983 C 40 135.853, 39.613 135.858, 35.315 137.102 M 467.315 137.102 C 463.026 138.343, 458.300 143.260, 457.041 147.791 C 456.394 150.122, 456.006 171.565, 455.996 205.500 L 455.982 259.500 412.398 315 C 388.428 345.525, 368.222 371.119, 367.496 371.876 C 366.384 373.036, 365.218 372.515, 360.088 368.568 C 356.740 365.991, 354 363.471, 354 362.968 C 354 362.465, 366.143 346.629, 380.984 327.777 L 407.968 293.500 407.969 286.500 C 407.970 282.650, 407.401 278.375, 406.706 277 C 405.083 273.792, 400.830 271.754, 397.501 272.589 C 393.816 273.514, 293.507 380.894, 290.624 387 C 288.564 391.364, 288.491 392.958, 288.205 439.750 L 287.910 488 327.877 488 L 367.844 488 368.172 469.250 C 368.641 442.442, 366.134 446.530, 407.878 404.500 L 441.646 370.500 464.823 327.829 L 488 285.158 487.994 218.329 C 487.991 177.556, 487.605 150.118, 487.004 147.956 C 485.779 143.544, 480.474 138.283, 475.942 136.983 C 472 135.853, 471.613 135.858, 467.315 137.102 M 120.094 169.331 C 118.220 169.974, 115.745 171.770, 114.594 173.322 C 112.563 176.058, 112.491 177.350, 112.207 216.072 L 111.914 256 114.591 256 C 119.904 256, 125.372 258.487, 130.638 263.300 L 136 268.201 135.944 223.850 C 135.903 192.189, 135.546 178.525, 134.694 176.094 C 132.610 170.146, 126.271 167.210, 120.094 169.331 M 384.094 169.331 C 382.220 169.974, 379.745 171.770, 378.594 173.322 C 376.550 176.076, 376.493 177.253, 376.211 222.208 L 375.923 268.271 381.324 263.335 C 386.614 258.500, 392.082 256, 397.366 256 L 400 256 399.944 217.750 C 399.904 190.817, 399.534 178.492, 398.694 176.094 C 396.610 170.146, 390.271 167.210, 384.094 169.331 M 160.094 241.331 C 158.220 241.974, 155.745 243.769, 154.594 245.320 C 152.663 247.921, 152.480 249.638, 152.250 267.320 L 151.999 286.500 163.979 299 L 175.960 311.500 175.923 281.500 C 175.899 260.913, 175.513 250.431, 174.694 248.094 C 172.610 242.146, 166.271 239.210, 160.094 241.331 M 344.094 241.331 C 342.220 241.974, 339.745 243.770, 338.594 245.321 C 336.587 248.026, 336.489 249.454, 336.235 279.821 L 335.970 311.500 347.937 299 L 359.905 286.500 359.896 269 C 359.890 258.034, 359.442 250.228, 358.694 248.094 C 356.610 242.146, 350.271 239.210, 344.094 241.331" stroke="none" fill="#040404" fill-rule="evenodd"/></svg>